<?xml version="1.0" standalone="no"?>
<!DOCTYPE svg PUBLIC "-//W3C//DTD SVG 20010904//EN"
 "http://www.w3.org/TR/2001/REC-SVG-20010904/DTD/svg10.dtd">
<svg version="1.0" xmlns="http://www.w3.org/2000/svg"
 width="100.000000pt" height="100.000000pt" viewBox="0 0 100.000000 100.000000"
 preserveAspectRatio="xMidYMid meet">
<metadata>
Created by potrace 1.11, written by Peter Selinger 2001-2013
</metadata>
<g transform="translate(0.000000,100.000000) scale(0.100000,-0.100000)"
fill="#000000" stroke="none">
<path d="M483 807 c-67 -67 -155 -153 -194 -192 -68 -66 -106 -113 -98 -118
22 -14 106 -97 101 -101 -3 -3 0 -6 6 -6 14 0 132 -117 132 -131 0 -5 6 -9 13
-9 6 0 21 -13 32 -29 11 -17 21 -28 23 -27 2 2 30 -23 63 -56 l59 -60 41 40
40 41 -47 43 c-113 104 -141 142 -101 137 36 -4 37 -2 37 175 0 163 -1 174
-19 179 -14 3 -18 11 -14 26 3 12 8 21 12 21 4 0 33 25 64 56 l56 55 -39 40
c-21 21 -40 39 -42 38 -2 0 -58 -55 -125 -122z m-3 -197 c11 -7 14 -32 15
-107 0 -54 3 -103 7 -109 8 -11 1 -24 -13 -24 -4 0 -35 27 -68 60 -34 33 -65
60 -71 60 -19 0 4 36 54 82 56 52 55 52 76 38z"/>
</g>
</svg>
